<?xml version="1.0" encoding="iso-8859-1"?>
<!-- Uploaded to: SVG Repo, www.svgrepo.com, Generator: SVG Repo Mixer Tools -->
<svg version="1.1" id="Layer_1" xmlns="http://www.w3.org/2000/svg" xmlns:xlink="http://www.w3.org/1999/xlink" 
	 viewBox="0 0 512.001 512.001" xml:space="preserve">
<path style="fill:#FF1D25;" d="M152.033,151.769c0-57.42,46.548-103.968,103.968-103.968s103.968,46.548,103.968,103.968"/>
<g>
	<circle style="fill:#FFFFFF;" cx="255.997" cy="151.767" r="79.978"/>
	<circle style="fill:#FFFFFF;" cx="255.997" cy="151.767" r="79.978"/>
</g>
<path style="fill:#8CC63F;" d="M152.033,151.769c0,57.42,46.548,103.968,103.968,103.968s103.968-46.548,103.968-103.968
	 M335.976,151.769c0,44.168-35.806,79.975-79.975,79.975s-79.975-35.806-79.975-79.975"/>
<path style="fill:#F7931E;" d="M256.001,7.813c-79.504,0-143.955,64.451-143.955,143.955c0,79.504,143.955,343.893,143.955,343.893
	s143.955-264.388,143.955-343.893S335.505,7.813,256.001,7.813z M256.001,255.736c-57.42,0-103.968-46.548-103.968-103.968
	S198.581,47.801,256.001,47.801s103.968,46.548,103.968,103.968C359.968,209.188,313.42,255.736,256.001,255.736z"/>
<path style="fill:#FBB03B;" d="M256.001,7.813v39.988c57.42,0,103.968,46.548,103.968,103.968S313.42,255.736,256.001,255.736
	v239.925c0,0,143.955-264.388,143.955-343.893S335.505,7.813,256.001,7.813z"/>
<rect x="216.41" y="304.346" style="fill:#FFFFFF;" width="79.175" height="15.627"/>
<rect x="223.702" y="328.307" style="fill:#FF1D25;" width="16.668" height="15.627"/>
<rect x="247.663" y="328.307" width="16.668" height="15.627"/>
<rect x="271.624" y="328.307" style="fill:#FF1D25;" width="16.668" height="15.627"/>
<path d="M256.001,0c-83.685,0-151.769,68.084-151.769,151.769c0,80.567,138.989,336.762,144.907,347.629l6.862,12.603l6.862-12.603
	c5.917-10.867,144.907-267.062,144.907-347.629C407.769,68.084,339.686,0,256.001,0z M247.666,15.889v8.219h15.627v-8.285
	c71.691,3.803,128.85,63.323,128.85,135.945c0,62.012-92.732,244.731-128.85,313.542V351.227h-15.627v112.097
	c-36.828-70.285-127.808-250.135-127.808-311.556C119.86,79.499,176.465,20.212,247.666,15.889z"/>
<path d="M367.782,151.769c0-61.636-50.145-111.781-111.781-111.781S144.219,90.133,144.219,151.769
	c0,58.833,45.688,107.193,103.447,111.471v32.774h15.627v-32.708C321.542,259.535,367.782,210.953,367.782,151.769z M256.001,55.614
	c50.374,0,91.822,38.94,95.831,88.298h-8.412c-3.989-44.738-41.661-79.933-87.419-79.933s-83.43,35.196-87.419,79.933h-8.412
	C164.18,94.554,205.626,55.614,256.001,55.614z M328.163,151.769c0,39.79-32.371,72.162-72.162,72.162s-72.162-32.371-72.162-72.162
	c0-39.79,32.371-72.162,72.162-72.162S328.163,111.978,328.163,151.769z M256.001,247.923c-50.403,0-91.869-38.984-95.839-88.383
	h8.413c3.948,44.778,41.639,80.017,87.425,80.017s83.476-35.239,87.425-80.017h8.413
	C347.87,208.939,306.404,247.923,256.001,247.923z"/>
<polygon style="fill:#FBB03B;" points="279.961,143.913 263.293,143.913 263.293,128.286 247.666,128.286 247.666,143.913 
	232.04,143.913 232.04,159.539 247.666,159.539 247.666,176.208 263.293,176.208 263.293,159.539 279.961,159.539 "/>
</svg>